{"title":"Supernova (2000) 720p H264 AAC - HQ - BLURAY","uid":7278493,"size":545969815,"categoryP":"video","categoryS":"hd___movies","magnet":"?xt=urn:btih:f0a4c082860acb7b32514a7d5816f30b1f224c79&amp;dn=Supernova+%282000%29+720p+H264+AAC+-+HQ+-+BLURAY&amp;tr=udp%3A%2F%2Ftracker.openbittorrent.com%3A80&amp;tr=udp%3A%2F%2Fopen.demonii.com%3A1337&amp;tr=udp%3A%2F%2Ftracker.coppersurfer.tk%3A6969&amp;tr=udp%3A%2F%2Fexodus.desync.com%3A6969","seeders":0,"leechers":0,"uploader":"grabsurprise","files":-1,"time":1337366558,"description":"BLURAY for this film I think not exist. This is file is DVDRIP. I use resize professional 720p for minimum lossy quality in encoder. Audio its amazing too (because I love the audio of this film), I not use AAC V2 HE, because is OGG variable is better add more details of sound. I think, this compress is better possible you can have in internet for this film ok.  \n\nhas only one thing I ask you guys. My internet link is very bad 50kb / s upload, so PLEASE PUT IN SEED to help me spread.\n\n\nPLEASE HELP ME SPRED\nLanguage= English\n\n\nComplete name                            : D:supernov-720p-h264-aac-vorbis.mkv\nFormat                                   : Matroska\nFormat version                           : Version 2\nFile size                                : 521 MiB\nDuration                                 : 1h 26mn\nOverall bit rate mode                    : Variable\nOverall bit rate                         : 837 Kbps\nEncoded date                             : UTC 2012-05-06 16:26:45\nWriting application                      : mkvmerge v4.8.0 ('I Got The...') built on May 24 2011 03:12:58\nWriting library                          : libebml v1.2.0 + libmatroska v1.1.0\n\nVideo\nID                                       : 1\nFormat                                   : AVC\nFormat/Info                              : Advanced Video Codec\nFormat profile                           : &lt;a class=&quot;__cf_email__&quot; href=&quot;/cdn-cgi/l/email-protection&quot; data-cfemail=&quot;df97b6b8b79f93eaf1ee&quot;&gt;[email&amp;#160;protected]&lt;/a&gt;&lt;script cf-hash='f9e31' type=&quot;text/javascript&quot;&gt;\n/* &lt;![CDATA[ */!function(){try{var t=&quot;currentScript&quot;in document?document.currentScript:function(){for(var t=document.getElementsByTagName(&quot;script&quot;),e=t.length;e--;)if(t[e].getAttribute(&quot;cf-hash&quot;))return t[e]}();if(t&amp;&amp;t.previousSibling){var e,r,n,i,c=t.previousSibling,a=c.getAttribute(&quot;data-cfemail&quot;);if(a){for(e=&quot;&quot;,r=parseInt(a.substr(0,2),16),n=2;a.length-n;n+=2)i=parseInt(a.substr(n,2),16)^r,e+=String.fromCharCode(i);e=document.createTextNode(e),c.parentNode.replaceChild(e,c)}}}catch(u){}}();/* ]]&gt; */&lt;/script&gt;\nFormat settings, CABAC                   : Yes\nFormat settings, ReFrames                : 8 frames\nMuxing mode                              : Header stripping\nCodec ID                                 : V_MPEG4/ISO/AVC\nDuration                                 : 1h 26mn\nBit rate                                 : 725 Kbps\nWidth                                    : 1 280 pixels\nHeight                                   : 720 pixels\nDisplay aspect ratio                     : 16:9\nFrame rate                               : 25.000 fps\nColor space                              : YUV\nChroma subsampling                       : 4:2:0\nBit depth                                : 8 bits\nScan type                                : Progressive\nBits/(Pixel*Frame)                       : 0.031\nStream size                              : 451 MiB (87%)\nWriting library                          : x264 core 122 r2184 5c85e0a\n\nAudio\nID                                       : 2\nFormat                                   : Vorbis\nFormat settings, Floor                   : 1\nCodec ID                                 : A_VORBIS\nDuration                                 : 1h 26mn\nBit rate mode                            : Variable\nBit rate                                 : 96.0 Kbps\nChannel(s)                               : 2 channels\nSampling rate                            : 48.0 KHz\nCompression mode                         : Lossy\nStream size                              : 59.7 MiB (11%)\nWriting library                          : libVorbis (Omnipresent) (20120203 (Omnipresent))\nDefault                                  : Yes\nForced                                   : No","torrent":{"xt":"urn:btih:f0a4c082860acb7b32514a7d5816f30b1f224c79","amp;dn":"Supernova+%282000%29+720p+H264+AAC+-+HQ+-+BLURAY","amp;tr":["udp%3A%2F%2Ftracker.openbittorrent.com%3A80","udp%3A%2F%2Fopen.demonii.com%3A1337","udp%3A%2F%2Ftracker.coppersurfer.tk%3A6969","udp%3A%2F%2Fexodus.desync.com%3A6969"],"infoHash":"f0a4c082860acb7b32514a7d5816f30b1f224c79","infoHashBuffer":{"type":"Buffer","data":[240,164,192,130,134,10,203,123,50,81,74,125,88,22,243,11,31,34,76,121]},"announce":[],"urlList":[]}}